# xmcd
#
# Track frame offsets:
#	150
#	16397
#	30712
#	49627
#	61790
#	80762
#	98157
#	117270
#	134540
#	149772
#	166582
#	186522
#
# Disc length: 2580 seconds
#
# Revision: 1
# Processed by: cddbd v1.4PL0 Copyright (c) Steve Scherf et al.
# Submitted via: audiograbber 1.80
#
DISCID=a50a120c
DTITLE=The Boogiemen Inc. - "Got My Mojo Workin'"
DYEAR=1900
DGENRE=
TTITLE0=Before it's too late
TTITLE1=Talk to me baby
TTITLE2=Sittin' on top of the world
TTITLE3=You don't love me
TTITLE4=Hoochie coochie man
TTITLE5=Walkin' the dog
TTITLE6=Help me
TTITLE7=You can have me for free
TTITLE8=All your love
TTITLE9=Pretty woman
TTITLE10=Got my mojo workin'
TTITLE11=Another man
EXTD=
EXTT0=
EXTT1=
EXTT2=
EXTT3=
EXTT4=
EXTT5=
EXTT6=
EXTT7=
EXTT8=
EXTT9=
EXTT10=
EXTT11=
PLAYORDER=
